<?xml version="1.0" encoding="utf-8"?>
<!-- Generator: Adobe Illustrator 16.0.3, SVG Export Plug-In . SVG Version: 6.00 Build 0)  -->
<!DOCTYPE svg PUBLIC "-//W3C//DTD SVG 1.1//EN" "http://www.w3.org/Graphics/SVG/1.1/DTD/svg11.dtd">
<svg version="1.1" id="Capa_1" xmlns="http://www.w3.org/2000/svg" xmlns:xlink="http://www.w3.org/1999/xlink" x="0px" y="0px"
	 width="21px" height="22.189px" viewBox="0 0 21 22.189" enable-background="new 0 0 21 22.189" xml:space="preserve">
<g>
	<defs>
		<rect id="SVGID_1_" width="21" height="22.189"/>
	</defs>
	<clipPath id="SVGID_2_">
		<use xlink:href="#SVGID_1_"  overflow="visible"/>
	</clipPath>
	<path clip-path="url(#SVGID_2_)" d="M20.971,11.247c0.039-0.097,0.039-0.207,0-0.304c-0.021-0.049-0.05-0.093-0.087-0.13
		L16.13,6.059c-0.154-0.154-0.406-0.154-0.561,0c-0.155,0.155-0.155,0.407,0,0.561l4.078,4.079H7.528
		c-0.219,0-0.397,0.176-0.397,0.395c0,0.221,0.178,0.396,0.397,0.396h12.119l-4.078,4.079c-0.155,0.154-0.155,0.406,0,0.561
		c0.077,0.077,0.18,0.116,0.28,0.116s0.203-0.039,0.28-0.116l4.754-4.755C20.921,11.339,20.949,11.295,20.971,11.247"/>
	<path clip-path="url(#SVGID_2_)" d="M13.868,13.074c-0.219,0-0.396,0.179-0.396,0.397v7.925H0.793V0.793h12.678v7.925
		c0,0.219,0.178,0.395,0.396,0.395s0.396-0.176,0.396-0.395V0.396C14.265,0.178,14.087,0,13.868,0H0.396C0.178,0,0,0.178,0,0.396
		v21.396c0,0.218,0.178,0.396,0.396,0.396h13.472c0.219,0,0.396-0.179,0.396-0.396v-8.321
		C14.265,13.253,14.087,13.074,13.868,13.074"/>
</g>
</svg>
