<?xml version="1.0" encoding="utf-8"?>
<!-- Generator: Adobe Illustrator 16.0.3, SVG Export Plug-In . SVG Version: 6.00 Build 0)  -->
<!DOCTYPE svg PUBLIC "-//W3C//DTD SVG 1.1//EN" "http://www.w3.org/Graphics/SVG/1.1/DTD/svg11.dtd">
<svg version="1.1" id="Capa_1" xmlns="http://www.w3.org/2000/svg" xmlns:xlink="http://www.w3.org/1999/xlink" x="0px" y="0px"
	 width="21px" height="21.001px" viewBox="0 0 21 21.001" enable-background="new 0 0 21 21.001" xml:space="preserve">
<g>
	<defs>
		<rect id="SVGID_1_" width="21" height="21.001"/>
	</defs>
	<clipPath id="SVGID_2_">
		<use xlink:href="#SVGID_1_"  overflow="visible"/>
	</clipPath>
	<path clip-path="url(#SVGID_2_)" d="M10.49,21.001c-1.725,0-3.438-0.431-4.955-1.247l-0.109-0.059l-0.101,0.072
		c-1.389,1.001-2.75,1.211-3.648,1.211c-0.28,0-0.555-0.021-0.815-0.061c-0.347-0.055-0.617-0.326-0.671-0.677
		c-0.054-0.346,0.123-0.685,0.439-0.841c0.893-0.438,1.474-1.324,1.804-1.99l0.058-0.115l-0.083-0.1
		c-1.667-2.006-2.518-4.554-2.398-7.174c0.12-2.625,1.207-5.092,3.06-6.945C5.055,1.093,7.691,0,10.495,0
		c2.803,0,5.439,1.093,7.424,3.077C19.906,5.064,21,7.701,21,10.501c0,2.803-1.093,5.44-3.076,7.423
		C15.939,19.909,13.299,21.001,10.49,21.001 M5.386,18.789c0.073,0,0.145,0.021,0.208,0.058c1.483,0.872,3.175,1.332,4.893,1.332
		c2.587,0,5.02-1.008,6.849-2.837c1.826-1.825,2.83-4.255,2.83-6.84c-0.001-2.586-1.007-5.016-2.834-6.84
		c-1.823-1.825-4.252-2.83-6.839-2.83S5.475,1.835,3.65,3.661c-3.61,3.61-3.788,9.431-0.406,13.251
		c0.055,0.063,0.091,0.147,0.101,0.234l0.001,0.014l0.003,0.013c0.021,0.088,0.014,0.181-0.022,0.27
		c-0.313,0.711-0.875,1.733-1.771,2.387L1.064,20.22h0.609c0.831,0,2.082-0.239,3.352-1.224l0.01-0.024l0.009-0.017l0.028-0.019
		l0.022-0.024C5.17,18.835,5.277,18.789,5.386,18.789 M9.197,14.27h0.992v1.388H9.197V14.27z M9.084,12.683
		c0.032-0.313,0.103-0.611,0.204-0.857c0.136-0.332,0.432-0.631,0.879-0.891c0.174-0.104,0.365-0.211,0.572-0.319
		c0.248-0.13,0.497-0.29,0.738-0.474c0.256-0.195,0.475-0.426,0.652-0.689c0.197-0.294,0.298-0.633,0.298-1.007
		c0-0.283-0.058-0.54-0.169-0.765c-0.108-0.217-0.254-0.403-0.432-0.554s-0.387-0.264-0.621-0.338
		c-0.225-0.07-0.453-0.105-0.683-0.105c-0.284,0-0.549,0.05-0.787,0.149C9.513,6.926,9.308,7.046,9.127,7.19
		C8.95,7.33,8.79,7.491,8.65,7.667C8.615,7.71,8.582,7.754,8.549,7.797L7.776,7.264c0.097-0.172,0.21-0.332,0.338-0.475
		c0.2-0.223,0.431-0.414,0.686-0.567c0.257-0.155,0.541-0.274,0.842-0.354c0.305-0.081,0.622-0.122,0.945-0.122
		c0.361,0,0.724,0.053,1.077,0.158c0.34,0.101,0.648,0.264,0.918,0.483c0.266,0.216,0.486,0.5,0.656,0.844
		c0.167,0.34,0.253,0.759,0.253,1.245c0,0.297-0.034,0.56-0.102,0.78c-0.067,0.218-0.164,0.418-0.287,0.595
		c-0.128,0.182-0.281,0.349-0.454,0.495c-0.187,0.156-0.4,0.311-0.638,0.459c-0.2,0.12-0.409,0.24-0.615,0.354
		c-0.231,0.127-0.446,0.271-0.64,0.43c-0.202,0.165-0.376,0.368-0.517,0.603c-0.081,0.135-0.146,0.308-0.184,0.491H9.084z"/>
</g>
</svg>
