<?xml version="1.0" encoding="utf-8"?>
<!-- Generator: Adobe Illustrator 16.0.3, SVG Export Plug-In . SVG Version: 6.00 Build 0)  -->
<!DOCTYPE svg PUBLIC "-//W3C//DTD SVG 1.1//EN" "http://www.w3.org/Graphics/SVG/1.1/DTD/svg11.dtd">
<svg version="1.1" id="Capa_1" xmlns="http://www.w3.org/2000/svg" xmlns:xlink="http://www.w3.org/1999/xlink" x="0px" y="0px"
	 width="20px" height="20px" viewBox="0 0 20 20" enable-background="new 0 0 20 20" xml:space="preserve">
<g>
	<defs>
		<rect id="SVGID_1_" width="20" height="20"/>
	</defs>
	<clipPath id="SVGID_2_">
		<use xlink:href="#SVGID_1_"  overflow="visible"/>
	</clipPath>
	<path clip-path="url(#SVGID_2_)" d="M10,3.318C6.972,3.318,4.784,5.575,4.437,8c-0.216,1.616,0.306,3.191,1.392,4.384
		c0.955,1.021,1.478,2.384,1.478,3.787l-0.004,2.213C7.302,19.277,8.041,20,8.955,20h2.131c0.914,0,1.652-0.723,1.652-1.616
		l0.005-2.213c0-1.444,0.478-2.767,1.392-3.702c1-1.02,1.522-2.338,1.522-3.702C15.653,5.743,13.086,3.318,10,3.318z M11.91,18.384
		c0,0.424-0.347,0.767-0.783,0.767H8.996c-0.437,0-0.784-0.338-0.784-0.767v-0.979h3.694v0.979H11.91z M13.526,11.873
		c-1.086,1.106-1.653,2.637-1.653,4.298v0.384H8.18v-0.384c0-1.575-0.653-3.146-1.739-4.339c-0.955-1.02-1.347-2.338-1.176-3.702
		c0.306-2.041,2.204-3.959,4.739-3.959c2.653,0,4.784,2.085,4.784,4.596C14.788,9.914,14.351,11.021,13.526,11.873"/>
	<rect x="9.563" clip-path="url(#SVGID_2_)" width="0.869" height="2.041"/>
	<polygon clip-path="url(#SVGID_2_)" points="15.27,3.935 15.878,4.542 17.367,3.11 16.755,2.502 	"/>
	<rect x="17.869" y="9.191" clip-path="url(#SVGID_2_)" width="2.131" height="0.854"/>
	<rect y="9.191" clip-path="url(#SVGID_2_)" width="2.13" height="0.854"/>
	<polygon clip-path="url(#SVGID_2_)" points="3.229,2.498 2.616,3.106 4.106,4.539 4.714,3.93 	"/>
</g>
</svg>
