<?xml version="1.0" encoding="utf-8"?>
<!-- Generator: Adobe Illustrator 16.0.3, SVG Export Plug-In . SVG Version: 6.00 Build 0)  -->
<!DOCTYPE svg PUBLIC "-//W3C//DTD SVG 1.1//EN" "http://www.w3.org/Graphics/SVG/1.1/DTD/svg11.dtd">
<svg version="1.1" id="Capa_1" xmlns="http://www.w3.org/2000/svg" xmlns:xlink="http://www.w3.org/1999/xlink" x="0px" y="0px"
	 width="21px" height="20.854px" viewBox="0 0 21 20.854" enable-background="new 0 0 21 20.854" xml:space="preserve">
<g>
	<defs>
		<rect id="SVGID_1_" width="21" height="20.854"/>
	</defs>
	<clipPath id="SVGID_2_">
		<use xlink:href="#SVGID_1_"  overflow="visible"/>
	</clipPath>
	<path clip-path="url(#SVGID_2_)" fill="#FFFFFF" d="M9.496,10.43L0.2,19.725c-0.258,0.259-0.258,0.678,0,0.936
		c0.129,0.129,0.298,0.193,0.467,0.193c0.169,0,0.338-0.064,0.467-0.193l9.366-9.365l9.365,9.365
		c0.129,0.129,0.298,0.193,0.467,0.193c0.17,0,0.339-0.064,0.468-0.193c0.258-0.258,0.258-0.677,0-0.936l-9.295-9.295l9.301-9.302
		c0.259-0.258,0.259-0.676,0-0.935c-0.258-0.258-0.677-0.258-0.935,0L10.5,9.565L1.128,0.193c-0.258-0.258-0.676-0.258-0.934,0
		c-0.258,0.258-0.258,0.677,0,0.935L9.496,10.43z"/>
</g>
</svg>
