<?xml version="1.0" encoding="utf-8"?>
<!-- Generator: Adobe Illustrator 16.0.3, SVG Export Plug-In . SVG Version: 6.00 Build 0)  -->
<!DOCTYPE svg PUBLIC "-//W3C//DTD SVG 1.1//EN" "http://www.w3.org/Graphics/SVG/1.1/DTD/svg11.dtd">
<svg version="1.1" id="Capa_1" xmlns="http://www.w3.org/2000/svg" xmlns:xlink="http://www.w3.org/1999/xlink" x="0px" y="0px"
	 width="21px" height="21.133px" viewBox="0 0 21 21.133" enable-background="new 0 0 21 21.133" xml:space="preserve">
<g>
	<defs>
		<rect id="SVGID_1_" width="21" height="21.133"/>
	</defs>
	<clipPath id="SVGID_2_">
		<use xlink:href="#SVGID_1_"  overflow="visible"/>
	</clipPath>
	<path clip-path="url(#SVGID_2_)" d="M20.885,9.643l-3.144-2.919V1.943H14.12v1.419L10.5,0L0.116,9.643
		c-0.146,0.136-0.155,0.365-0.019,0.512c0.136,0.146,0.365,0.155,0.512,0.019l1.202-1.116v12.075h5.793h5.793h5.794V9.058
		l1.201,1.116c0.069,0.065,0.158,0.097,0.247,0.097c0.097,0,0.193-0.039,0.265-0.115C21.039,10.008,21.03,9.779,20.885,9.643
		 M14.845,2.667h2.173v3.385l-2.173-2.017V2.667z M8.327,20.408v-7.626c0-0.188,0.152-0.34,0.339-0.34h3.667
		c0.188,0,0.339,0.152,0.339,0.34v7.626H8.327z M18.466,20.408h-5.069v-7.626c0-0.587-0.477-1.063-1.063-1.063H8.667
		c-0.586,0-1.063,0.477-1.063,1.063v7.626H2.534V8.385L10.5,0.988l5.17,4.801l2.071,1.923l0.725,0.672V20.408z"/>
</g>
</svg>
