<?xml version="1.0" encoding="utf-8"?>
<!-- Generator: Adobe Illustrator 16.0.3, SVG Export Plug-In . SVG Version: 6.00 Build 0)  -->
<!DOCTYPE svg PUBLIC "-//W3C//DTD SVG 1.1//EN" "http://www.w3.org/Graphics/SVG/1.1/DTD/svg11.dtd">
<svg version="1.1" id="Capa_1" xmlns="http://www.w3.org/2000/svg" xmlns:xlink="http://www.w3.org/1999/xlink" x="0px" y="0px"
	 width="21px" height="21px" viewBox="0 0 21 21" enable-background="new 0 0 21 21" xml:space="preserve">
<g>
	<defs>
		<rect id="SVGID_1_" width="21" height="21"/>
	</defs>
	<clipPath id="SVGID_2_">
		<use xlink:href="#SVGID_1_"  overflow="visible"/>
	</clipPath>
	<path clip-path="url(#SVGID_2_)" d="M8.498,0H1.252C0.562,0,0,0.562,0,1.252v7.245C0,9.188,0.562,9.75,1.252,9.75h7.245
		c0.691,0,1.252-0.562,1.252-1.252V1.252C9.75,0.562,9.188,0,8.498,0 M9,8.498C9,8.774,8.774,9,8.498,9H1.252
		C0.976,9,0.75,8.774,0.75,8.498V1.252c0-0.277,0.226-0.502,0.502-0.502h7.245C8.774,0.75,9,0.976,9,1.252V8.498z"/>
	<path clip-path="url(#SVGID_2_)" d="M19.747,0h-7.244c-0.691,0-1.253,0.562-1.253,1.252v7.245c0,0.691,0.562,1.252,1.253,1.252
		h7.244C20.438,9.75,21,9.188,21,8.498V1.252C21,0.562,20.438,0,19.747,0 M20.25,8.498C20.25,8.774,20.024,9,19.747,9h-7.244
		C12.226,9,12,8.774,12,8.498V1.252c0-0.277,0.226-0.502,0.503-0.502h7.244c0.277,0,0.503,0.226,0.503,0.502V8.498z"/>
	<path clip-path="url(#SVGID_2_)" d="M19.747,11.25h-7.244c-0.691,0-1.253,0.562-1.253,1.253v7.244c0,0.691,0.562,1.253,1.253,1.253
		h7.244C20.438,21,21,20.438,21,19.747v-7.244C21,11.812,20.438,11.25,19.747,11.25 M20.25,19.747c0,0.277-0.226,0.503-0.503,0.503
		h-7.244c-0.277,0-0.503-0.226-0.503-0.503v-7.244C12,12.226,12.226,12,12.503,12h7.244c0.277,0,0.503,0.226,0.503,0.503V19.747z"/>
	<path clip-path="url(#SVGID_2_)" d="M8.498,11.25H1.252C0.562,11.25,0,11.812,0,12.503v7.244C0,20.438,0.562,21,1.252,21h7.245
		c0.691,0,1.252-0.562,1.252-1.253v-7.244C9.75,11.812,9.188,11.25,8.498,11.25 M9,19.747c0,0.277-0.226,0.503-0.502,0.503H1.252
		c-0.277,0-0.502-0.226-0.502-0.503v-7.244C0.75,12.226,0.976,12,1.252,12h7.245C8.774,12,9,12.226,9,12.503V19.747z"/>
</g>
</svg>
