<?xml version="1.0" encoding="utf-8"?>
<!-- Generator: Adobe Illustrator 16.0.3, SVG Export Plug-In . SVG Version: 6.00 Build 0)  -->
<!DOCTYPE svg PUBLIC "-//W3C//DTD SVG 1.1//EN" "http://www.w3.org/Graphics/SVG/1.1/DTD/svg11.dtd">
<svg version="1.1" id="Capa_1" xmlns="http://www.w3.org/2000/svg" xmlns:xlink="http://www.w3.org/1999/xlink" x="0px" y="0px"
	 width="20px" height="19.999px" viewBox="0 0 20 19.999" enable-background="new 0 0 20 19.999" xml:space="preserve">
<g>
	<defs>
		<rect id="SVGID_1_" y="0" width="20" height="20"/>
	</defs>
	<clipPath id="SVGID_2_">
		<use xlink:href="#SVGID_1_"  overflow="visible"/>
	</clipPath>
	<path clip-path="url(#SVGID_2_)" fill="#4675B6" d="M10,0C7.329,0,4.818,1.04,2.929,2.929C1.04,4.818,0,7.329,0,10
		c0,2.671,1.04,5.182,2.929,7.07c1.889,1.89,4.399,2.93,7.071,2.93c2.671,0,5.182-1.04,7.07-2.929C18.96,15.182,20,12.671,20,10
		c0-2.671-1.04-5.182-2.93-7.07C15.182,1.04,12.671,0,10,0 M16.187,16.187c-1.652,1.652-3.85,2.563-6.187,2.563
		s-4.534-0.91-6.187-2.563C2.16,14.533,1.25,12.337,1.25,10c0-2.337,0.91-4.534,2.563-6.187C5.466,2.16,7.663,1.25,10,1.25
		s4.534,0.91,6.187,2.563C17.84,5.465,18.75,7.663,18.75,10C18.75,12.337,17.84,14.533,16.187,16.187"/>
	<path clip-path="url(#SVGID_2_)" fill="#4675B6" d="M15.625,9.375h-5v-5c0-0.345-0.28-0.625-0.625-0.625
		c-0.345,0-0.625,0.28-0.625,0.625v5h-5C4.03,9.375,3.75,9.654,3.75,10s0.28,0.625,0.625,0.625h5v5c0,0.346,0.28,0.625,0.625,0.625
		c0.345,0,0.625-0.279,0.625-0.625v-5h5c0.345,0,0.625-0.279,0.625-0.625S15.97,9.375,15.625,9.375"/>
</g>
</svg>
