<svg id="Capa_1" data-name="Capa 1" xmlns="http://www.w3.org/2000/svg" viewBox="0 0 85 85"><title>Objeto inteligente vectorial12</title><path d="M36.93,40.44H22.57a.69.69,0,0,0-.69.69V55.48a.69.69,0,0,0,.69.69H36.93a.69.69,0,0,0,.69-.69V41.13A.69.69,0,0,0,36.93,40.44ZM36.24,54.8h-13v-13h13Z"/><path d="M28.06,52.83a.69.69,0,0,0,.5.22h.06a.69.69,0,0,0,.51-.3L34,45.39a.69.69,0,1,0-1.14-.76l-4.43,6.63-2.35-2.49a.69.69,0,0,0-1,.94Z"/><path d="M36.93,59.29H22.57a.69.69,0,0,0-.69.69V74.33a.69.69,0,0,0,.69.69H36.93a.69.69,0,0,0,.69-.69V60A.69.69,0,0,0,36.93,59.29Zm-.69,14.36h-13v-13h13Z"/><path d="M28.06,71.68a.69.69,0,0,0,.5.22h.06a.69.69,0,0,0,.51-.3L34,64.24a.69.69,0,0,0-1.14-.76l-4.43,6.63-2.35-2.49a.69.69,0,0,0-1,.94Z"/><path d="M40.31,29.84a.69.69,0,0,0,.69.69H61.15a.69.69,0,1,0,0-1.37H41A.69.69,0,0,0,40.31,29.84Z"/><path d="M61.15,48H41a.69.69,0,0,0,0,1.37H61.15a.69.69,0,1,0,0-1.37Z"/><path d="M66.06,10.48H51.48L51,9.59a.69.69,0,0,0-.6-.36h-4v-7a.69.69,0,0,0-.69-.69H37.4a.69.69,0,0,0-.69.69v7h-4a.69.69,0,0,0-.6.36l-.48.88H18.94a5.41,5.41,0,0,0-5.4,5.4V78.1a5.41,5.41,0,0,0,5.4,5.4H66.06a5.41,5.41,0,0,0,5.4-5.4V15.88A5.41,5.41,0,0,0,66.06,10.48Zm-33.45,1h0l.48-.88h4.3a.69.69,0,0,0,.69-.69v-7H45v7a.69.69,0,0,0,.69.69H50l.48.88h0l2.89,5.31H29.72l.39-.72h0Zm22.51,5.67-.39-.72h8.91a1.89,1.89,0,0,1,1.89,1.89V76a1.89,1.89,0,0,1-1.89,1.89H21.08A1.89,1.89,0,0,1,19.19,76V18.33a1.89,1.89,0,0,1,1.89-1.89h7.27l-.39.72a.69.69,0,0,0,.6,1h26a.69.69,0,0,0,.6-1Zm15,60.94a4,4,0,0,1-4,4H18.94a4,4,0,0,1-4-4V15.88a4,4,0,0,1,4-4H30.85L29.1,15.07h-8a3.26,3.26,0,0,0-3.26,3.26V76a3.26,3.26,0,0,0,3.26,3.26H63.64A3.26,3.26,0,0,0,66.9,76V18.33a3.26,3.26,0,0,0-3.26-3.26H54l-1.75-3.22H66.06a4,4,0,0,1,4,4Z"/><path d="M61.15,66.85H41a.69.69,0,0,0,0,1.37H61.15a.69.69,0,1,0,0-1.37Z"/><path d="M28.06,34a.69.69,0,0,0,.5.22h.06a.69.69,0,0,0,.51-.3L34,26.55a.69.69,0,1,0-1.14-.76l-4.43,6.63-2.35-2.49a.69.69,0,0,0-1,.94Z"/><path d="M36.93,21.59H22.57a.69.69,0,0,0-.69.69V36.64a.69.69,0,0,0,.69.69H36.93a.69.69,0,0,0,.69-.69V22.28A.69.69,0,0,0,36.93,21.59Zm-.69,14.36h-13V23h13Z"/></svg>