<svg id="Capa_1" data-name="Capa 1" xmlns="http://www.w3.org/2000/svg" viewBox="0 0 85 85"><title>Objeto inteligente vectorial12</title><path d="M76.63,7.52a20.3,20.3,0,0,0-28.85,0,20.43,20.43,0,0,0-1,27.8,8.85,8.85,0,0,1-3.65,4,1.37,1.37,0,0,0,.37,2.59,11.8,11.8,0,0,0,8.58-2.14,20.45,20.45,0,0,0,24.5-3.34h0A20.53,20.53,0,0,0,76.63,7.52Zm-.84,28.07a19.26,19.26,0,0,1-23.26,3l-.37-.37-.41.32a10.61,10.61,0,0,1-8,2.16.17.17,0,0,1-.15-.16.18.18,0,0,1,.11-.2,10.31,10.31,0,0,0,4.37-4.91l.17-.38-.41-.4a19.23,19.23,0,0,1,.78-26.33,19.11,19.11,0,0,1,27.17,0A19.34,19.34,0,0,1,75.79,35.58Z"/><path d="M60.17,25.81l-2-.29-.9-1.83a1,1,0,0,0-.93-.58,1,1,0,0,0-.93.58l-.9,1.83-2,.29a1,1,0,0,0-.84.71,1,1,0,0,0,.26,1.07L53.34,29,53,31a1,1,0,0,0,1.51,1.1l1.81-.95,1.81,1A1,1,0,0,0,59.21,32a1,1,0,0,0,.41-1l-.35-2,1.46-1.42h0A1,1,0,0,0,61,26.52,1,1,0,0,0,60.17,25.81ZM58,28.59l.4,2.33-2.09-1.1-2.09,1.1.4-2.33-1.69-1.65,2.34-.34,1-2.12,1,2.12,2.34.34Z"/><path d="M70.86,25.81l-2-.29-.9-1.83a1,1,0,0,0-1.86,0l-.9,1.83-2,.29a1,1,0,0,0-.58,1.77L64,29l-.35,2a1,1,0,0,0,1.51,1.1L67,31.16l1.81,1A1,1,0,0,0,69.91,32a1,1,0,0,0,.41-1L70,29l1.46-1.42a1,1,0,0,0-.57-1.77ZM68.7,28.59l.4,2.33L67,29.82l-2.09,1.1.4-2.33-1.69-1.65L66,26.6l1-2.12,1,2.12,2.34.34Z"/><path d="M54.13,22.72a1,1,0,0,0,.42-1l-.34-2,1.46-1.42a1,1,0,0,0-.58-1.77l-2-.29-.9-1.83a1,1,0,0,0-1.86,0l-.9,1.83-2,.29a1,1,0,0,0-.58,1.77l1.46,1.42-.34,2a1,1,0,0,0,1.51,1.1l1.81-.95,1.81,1A1.05,1.05,0,0,0,54.13,22.72Zm-5-1.11.4-2.33-1.69-1.65,2.34-.34,1-2.12,1,2.12,2.34.34-1.69,1.65.4,2.33-2.09-1.1Z"/><path d="M64.83,22.72a1,1,0,0,0,.41-1l-.35-2,1.46-1.42h0a1,1,0,0,0-.58-1.77l-2-.29-.9-1.83a1,1,0,0,0-.93-.58,1,1,0,0,0-.93.58l-.9,1.83-2,.29a1,1,0,0,0-.58,1.77L59,19.69l-.34,2a1,1,0,0,0,1.51,1.1l1.81-.95,1.81,1A1.05,1.05,0,0,0,64.83,22.72Zm-5-1.11.4-2.33-1.69-1.65,2.34-.34,1-2.12,1,2.12,2.34.34-1.69,1.65.4,2.33-2.09-1.1Z"/><path d="M77.32,17.2a1,1,0,0,0-.84-.71l-2-.29-.9-1.83a1,1,0,0,0-1.86,0l-.9,1.83-2,.29a1,1,0,0,0-.84.71,1,1,0,0,0,.26,1.07l1.46,1.42-.35,2a1,1,0,0,0,.41,1,1,1,0,0,0,1.09.08l1.81-.95,1.81,1a1,1,0,0,0,1.09-.08,1,1,0,0,0,.41-1l-.34-2,1.46-1.42A1,1,0,0,0,77.32,17.2Zm-3,2.08.4,2.33-2.09-1.1-2.09,1.1.4-2.33-1.69-1.65,2.34-.34,1-2.12,1,2.12,2.34.34Z"/><path d="M53.84,80.77c-.49-7-1.37-13.72-4.38-14.91l-12-4.76A23.14,23.14,0,0,1,33,57.66c3.65-1.83,7.63-6.17,7.63-16.36,0-8.12-4.36-12.42-12.62-12.42-4.15,0-7.35,1.11-9.52,3.29s-3.15,5.2-3.11,9.13c.09,8.5,3,14.52,8,16.7a23.49,23.49,0,0,1-4.12,3.06l-12,4.79c-3,1.2-3.89,7.88-4.38,14.92-.06.92-.13,1.78-.18,2l-.2.74H54.21l-.2-.75C54,82.55,53.9,81.69,53.84,80.77Zm-50,1.55c0-.35.07-.83.11-1.46.24-3.5.9-12.81,3.64-13.9l12.08-4.82a24,24,0,0,0,5.13-3.94l.68-.68-.91-.3c-5-1.66-8-7.46-8.06-15.93,0-3.61.89-6.39,2.77-8.28s4.85-2.94,8.67-2.94c7.59,0,11.43,3.78,11.43,11.23,0,10.28-4.18,14.18-7.69,15.63l-.8.33.6.63A23.78,23.78,0,0,0,37,62.16L49,67c2.74,1.09,3.39,10.39,3.64,13.9,0,.64.08,1.11.11,1.46Z"/></svg>