<svg id="Capa_1" data-name="Capa 1" xmlns="http://www.w3.org/2000/svg" viewBox="0 0 85 85"><title>Objeto inteligente vectorial12</title><path d="M79.76,33.66A28.9,28.9,0,0,0,53.6,4.78L53,4.72l-.17-.57A3.69,3.69,0,0,0,49.32,1.5H35.68a3.69,3.69,0,0,0-3.52,2.65L32,4.72l-.59.06A28.9,28.9,0,0,0,5.24,33.66V57.55a8.33,8.33,0,0,0,8.32,8.32h7.16a3,3,0,0,0,3-3V37.5a3,3,0,0,0-3-3H13.55a8.31,8.31,0,0,0-5.4,2L6.7,37.77v-4.1A27.46,27.46,0,0,1,31.48,6.24l.62-.06.27.56a3.69,3.69,0,0,0,3.31,2.1H49.32a3.69,3.69,0,0,0,3.31-2.1l.27-.56.62.06A27.46,27.46,0,0,1,78.3,33.66v4.1l-1.46-1.25a8.31,8.31,0,0,0-5.4-2H64.29a3,3,0,0,0-3,3V62.88a3,3,0,0,0,3,3h7.16a8.31,8.31,0,0,0,5.4-2l1.46-1.25v3.09A11.94,11.94,0,0,1,66.38,77.63H46.18L46,77a5.16,5.16,0,0,0-5-3.76H35.17a5.14,5.14,0,1,0,0,10.28H41a5.16,5.16,0,0,0,5-3.76l.18-.65h20.2A13.4,13.4,0,0,0,79.76,65.71ZM19.19,36h1.52a1.52,1.52,0,0,1,1.52,1.52V62.88a1.52,1.52,0,0,1-1.52,1.52H19.19Zm-5.64,0h4.18V64.4H13.55A6.86,6.86,0,0,1,6.7,57.55V42.84A6.86,6.86,0,0,1,13.55,36ZM49.32,7.38H35.68a2.21,2.21,0,0,1,0-4.42H49.32a2.21,2.21,0,1,1,0,4.42ZM41,82H35.17a3.68,3.68,0,1,1,0-7.36H41A3.68,3.68,0,1,1,41,82ZM65.81,64.4H64.29a1.52,1.52,0,0,1-1.52-1.52V37.5A1.52,1.52,0,0,1,64.29,36h1.52ZM78.3,57.55a6.86,6.86,0,0,1-6.86,6.86H67.27V36h4.18a6.86,6.86,0,0,1,6.86,6.86Z"/></svg>