<svg id="Capa_1" data-name="Capa 1" xmlns="http://www.w3.org/2000/svg" viewBox="0 0 85 85"><title>Objeto inteligente vectorial12</title><path d="M54.91,39.43H47.65a.7.7,0,0,0,0,1.4h7.26a.7.7,0,0,0,0-1.4Z"/><path d="M42.26,40.83h1.66a.7.7,0,1,0,0-1.4H42.26a.7.7,0,1,0,0,1.4Z"/><path d="M42.26,36.27h1.66a.7.7,0,1,0,0-1.4H42.26a.7.7,0,1,0,0,1.4Z"/><path d="M59.69,34.87h-12a.7.7,0,0,0,0,1.4h12a.7.7,0,1,0,0-1.4Z"/><path d="M42.26,21.52H59.69a.7.7,0,1,0,0-1.4H42.26a.7.7,0,1,0,0,1.4Z"/><path d="M42.26,31.06H59.69a.7.7,0,1,0,0-1.4H42.26a.7.7,0,1,0,0,1.4Z"/><path d="M42.26,26.5H54.92a.7.7,0,0,0,0-1.4H42.26a.7.7,0,1,0,0,1.4Z"/><path d="M73.35,73.13a.64.64,0,0,0,0-.62L70,66.11a.63.63,0,0,0-.56-.34h-56a.63.63,0,0,0-.56.34L9.64,72.5a.63.63,0,0,0,.56.93H72.81A.63.63,0,0,0,73.35,73.13Zm-62.11-1L13.91,67H69.1l2.66,5.13Z"/><path d="M75.47,76.85H72.78a6,6,0,0,0-6,6,.63.63,0,0,0,.63.63H80.86a.63.63,0,0,0,.63-.63A6,6,0,0,0,75.47,76.85Zm-7.71,5.39.78-1.53a4.74,4.74,0,0,1,4.23-2.59h2.69a4.74,4.74,0,0,1,4.23,2.59l.78,1.53Z"/><path d="M32.65,62.32a.63.63,0,0,0,.63.7h17.8a.64.64,0,0,0,.63-.7l-.75-7H74.3a5.21,5.21,0,0,0,5.21-5.21V6.71A5.21,5.21,0,0,0,74.3,1.5H8.71A5.21,5.21,0,0,0,3.51,6.71V50.07a5.21,5.21,0,0,0,5.21,5.21H33.39ZM34,61.75l.69-6.47h15l.69,6.47Zm4.17-45.17v0h0a.72.72,0,0,1,0-.08,2.27,2.27,0,0,0,0-.24.74.74,0,0,1,0-.08v0a2,2,0,0,0-.07-.28h0l0-.05a3.19,3.19,0,0,0-.12-.33v0h0l0-.08,0-.07-.07-.13-.05-.1v0l-.16-.26v0l0-.05v-.34H61a2.63,2.63,0,0,1,2.63,2.63V48.49L62.36,49.7,59,46.36a.7.7,0,0,0-1,0L54.7,49.71l-3.31-3.33a.7.7,0,0,0-1,0L47.06,49.7l-3.34-3.34a.68.68,0,0,0-1,0L39.4,49.7l-1.22-1.22V17C38.18,16.83,38.17,16.7,38.16,16.58Zm14-3.64h-18a4,4,0,0,0-4,4V34a2.63,2.63,0,0,1-5.26,0V2.89H52.2ZM8.71,54a3.94,3.94,0,0,1-3.94-3.94V6.71A3.94,3.94,0,0,1,8.71,2.77H23.49V34a4,4,0,0,0,4,4c3.65,0,4-4,4-4V17a2.63,2.63,0,1,1,5.26,0V48.77a.88.88,0,0,0,0,.13l0,.09v0l0,.07,0,.06.07.09,1.92,1.92a.7.7,0,0,0,1,0l3.34-3.34,3.34,3.34a.7.7,0,0,0,1,0l3.34-3.34,3.33,3.35a.7.7,0,0,0,1,0l3.34-3.34,3.34,3.34a.68.68,0,0,0,1,0l1.92-1.92a.7.7,0,0,0,.21-.49V17a4,4,0,0,0-4-4h-7.4V2.77H74.3a3.94,3.94,0,0,1,3.94,3.94V50.07A3.94,3.94,0,0,1,74.3,54Z"/></svg>