<svg id="Capa_1" data-name="Capa 1" xmlns="http://www.w3.org/2000/svg" viewBox="0 0 85 85"><title>Objeto inteligente vectorial12</title><path d="M83.32,27.11,57.88,1.67a.6.6,0,0,0-.42-.16.6.6,0,0,0-.43.16l-9.41,9.4,0,0,0,0,0,0,0,0-9,9,0,0,0,0,0,0,0,0,0,0-9,9,0,0,0,0-9.06,9.06,0,0,0,0-9,9,0,0h0l0,0L1.68,57a.6.6,0,0,0,0,.85L27.12,83.32a.6.6,0,0,0,.85,0L83.32,28A.6.6,0,0,0,83.32,27.11ZM27.55,82,3,57.45l8.61-8.61,5.8,5.8a.61.61,0,0,0,.43.18.6.6,0,0,0,.42-1L12.41,48l8.26-8.26,9.79,9.79a.61.61,0,0,0,.43.18.6.6,0,0,0,.42-1l-9.8-9.8,8.26-8.26,5.8,5.8a.61.61,0,0,0,.43.18.59.59,0,0,0,.42-.17.6.6,0,0,0,0-.85l-5.8-5.8,8.26-8.26,9.79,9.79a.61.61,0,0,0,.43.18.59.59,0,0,0,.42-.17.6.6,0,0,0,0-.85l-9.79-9.79L48,12.4l5.8,5.8a.61.61,0,0,0,.43.18.59.59,0,0,0,.42-.18.6.6,0,0,0,0-.85l-5.8-5.8,8.61-8.61,24.59,24.6Z"/></svg>