<svg id="Capa_1" data-name="Capa 1" xmlns="http://www.w3.org/2000/svg" viewBox="0 0 85 85"><title>Objeto inteligente vectorial12</title><path d="M45.24,43.37a1.5,1.5,0,0,0-1.09.43,1.38,1.38,0,0,0-.44,1.06,1.53,1.53,0,0,0,1.53,1.53A1.4,1.4,0,0,0,46.3,46a1.5,1.5,0,0,0,.43-1.09,1.46,1.46,0,0,0-1.49-1.49Z"/><path d="M51.35,20.07A6.66,6.66,0,0,0,49,18.75a9.83,9.83,0,0,0-3-.45,8.3,8.3,0,0,0-3.75.75A7.23,7.23,0,0,0,39.81,21a6.94,6.94,0,0,0-1.3,2.57,11.55,11.55,0,0,0-.37,2.19h2a6.81,6.81,0,0,1,1.4-4,5.29,5.29,0,0,1,4.36-1.82,5.27,5.27,0,0,1,3.78,1.42,5.15,5.15,0,0,1,1.49,3.88,8.55,8.55,0,0,1-.2,1.89,5.6,5.6,0,0,1-.71,1.71A9.51,9.51,0,0,1,49,30.41a22.49,22.49,0,0,1-1.81,1.64,9.53,9.53,0,0,0-1.73,1.75,6.88,6.88,0,0,0-.92,1.71,7.45,7.45,0,0,0-.4,1.87c-.06.69-.09,1.44-.09,2.25v.57h2V39.08a8.68,8.68,0,0,1,.66-3.85A6.29,6.29,0,0,1,48.51,33c.78-.6,1.48-1.18,2.1-1.74a10.34,10.34,0,0,0,1.55-1.74,7.22,7.22,0,0,0,1-2,8.16,8.16,0,0,0,.34-2.43,7.29,7.29,0,0,0-.56-3A6.06,6.06,0,0,0,51.35,20.07Z"/><path d="M61.4,17.19a22.13,22.13,0,0,0-31.45,0,22.27,22.27,0,0,0-1.11,30.24A9.37,9.37,0,0,1,25,51.59a1.64,1.64,0,0,0,.44,3.09,12.93,12.93,0,0,0,9.32-2.29A22.3,22.3,0,0,0,61.4,48.7h0A22.38,22.38,0,0,0,61.4,17.19ZM60.28,47.58a20.71,20.71,0,0,1-25,3.28l-.48-.48-.55.42a11.35,11.35,0,0,1-8.57,2.31l0-.1a11.32,11.32,0,0,0,4.8-5.39l.23-.5-.51-.5a20.68,20.68,0,0,1,.84-28.31,20.55,20.55,0,0,1,29.21,0A20.8,20.8,0,0,1,60.28,47.58Z"/><path d="M46,1.5a30.86,30.86,0,0,0-13.45,3A31.63,31.63,0,0,0,14.37,33V37.9L8.2,49.74A4.65,4.65,0,0,0,8,54.4a4.7,4.7,0,0,0,4.21,2h2.17V67a7.23,7.23,0,0,0,7.22,7.22L29.67,73v8a2.41,2.41,0,0,0,.84,1.84,2.78,2.78,0,0,0,1.84.66,3.24,3.24,0,0,0,.45,0l31.93-5.68a3.57,3.57,0,0,0,2.83-3.4V55.94A31.46,31.46,0,0,0,46,1.5ZM66.24,55l-.26.24V74.39a2,2,0,0,1-1.55,1.85L32.56,81.91a1.26,1.26,0,0,1-1-.26.84.84,0,0,1-.3-.65V71.12l-9.73,1.48A5.64,5.64,0,0,1,15.95,67V54.82H12.2a3.15,3.15,0,0,1-2.85-1.24,3.16,3.16,0,0,1,.25-3.11l6.35-12.19V33A30,30,0,0,1,33.27,6,29.28,29.28,0,0,1,46,3.08,29.88,29.88,0,0,1,66.24,55Z"/></svg>