<svg id="Capa_1" data-name="Capa 1" xmlns="http://www.w3.org/2000/svg" viewBox="0 0 85 85"><title>Objeto inteligente vectorial12</title><path d="M15.28,20.7H49.93a.66.66,0,0,0,0-1.31H15.28a.66.66,0,0,0,0,1.31Z"/><path d="M15.28,30H49.93a.66.66,0,1,0,0-1.31H15.28a.66.66,0,0,0,0,1.31Z"/><path d="M15.28,39.24H49.93a.66.66,0,0,0,0-1.31H15.28a.66.66,0,0,0,0,1.31Z"/><path d="M15.28,48.51H49.93a.66.66,0,1,0,0-1.31H15.28a.66.66,0,0,0,0,1.31Z"/><path d="M83.31,34.7l-5.85-5.85a.66.66,0,0,0-.93,0L63.72,41.67V6.59a.66.66,0,0,0-.66-.66H2.16a.66.66,0,0,0-.66.66V78.41a.66.66,0,0,0,.66.66H63.06a.66.66,0,0,0,.66-.66V55.22L83.31,35.63a.65.65,0,0,0,.19-.46A.67.67,0,0,0,83.31,34.7ZM62.41,77.76H2.81V7.24h59.6V43L48.92,56.47H15.28a.66.66,0,0,0,0,1.31H47.61L44.7,60.69a.66.66,0,0,0-.17.31l-1.76,7.23H32.61a.66.66,0,0,0,0,1.31H43.28l.16,0,7.73-1.88a.65.65,0,0,0,.31-.17L62.41,56.53ZM50.68,66.4,44.17,68l1.59-6.5L77,30.24l4.92,4.92Z"/></svg>