<svg id="Capa_1" data-name="Capa 1" xmlns="http://www.w3.org/2000/svg" viewBox="0 0 85 85"><title>Objeto inteligente vectorial12</title><path d="M72,38.45H63.53a.64.64,0,0,0-.53.28l-4.61,9.35V9.8a.64.64,0,0,0-.64-.64H47.19v-7a.64.64,0,0,0-.64-.64H35.35a.64.64,0,0,0-.64.64v7H24.16a.64.64,0,0,0-.64.64v9.75H13a.64.64,0,0,0-.64.64v42a.62.62,0,0,0,0,.22L20,83.08a.64.64,0,0,0,.6.42H53.85a.64.64,0,0,0,.57-.36L72.61,46.51a.65.65,0,0,0,.07-.29V39.09A.64.64,0,0,0,72,38.45Zm-.64,7.62L53.46,82.22H21L13.6,62.1V20.83h9.91V47a.64.64,0,0,0,1.28,0V10.44h9.91V39.66a.64.64,0,0,0,1.28,0V2.78h9.91V39.66a.64.64,0,1,0,1.28,0V10.44H57.1V50.74a.64.64,0,0,0,.49.62l.15,0a.64.64,0,0,0,.58-.36l5.6-11.29H71.4Z"/></svg>