<svg id="Capa_1" data-name="Capa 1" xmlns="http://www.w3.org/2000/svg" viewBox="0 0 85 85"><title>Objeto inteligente vectorial12</title><path d="M78.44,12.65H6.56A5.07,5.07,0,0,0,1.5,17.71V67.29a5.07,5.07,0,0,0,5.06,5.06H78.44a5.07,5.07,0,0,0,5.06-5.06V17.71A5.07,5.07,0,0,0,78.44,12.65Zm3.91,54.64a3.91,3.91,0,0,1-3.91,3.91H6.56a3.91,3.91,0,0,1-3.91-3.91V17.71A3.91,3.91,0,0,1,6.56,13.8H78.44a3.91,3.91,0,0,1,3.91,3.91Z"/><path d="M23,53.08H10.44a.58.58,0,1,0,0,1.15H23a.58.58,0,1,0,0-1.15Z"/><path d="M41.11,53.08H28.56a.58.58,0,1,0,0,1.15H41.11a.58.58,0,0,0,0-1.15Z"/><path d="M11.83,60H10.44a.58.58,0,0,0,0,1.15h1.39a.58.58,0,0,0,0-1.15Z"/><path d="M20.2,60H17.41a.58.58,0,0,0,0,1.15H20.2a.58.58,0,0,0,0-1.15Z"/><path d="M27.17,60H25.77a.58.58,0,1,0,0,1.15h1.39a.58.58,0,1,0,0-1.15Z"/><path d="M35.53,60H32.74a.58.58,0,0,0,0,1.15h2.79a.58.58,0,0,0,0-1.15Z"/><path d="M41.09,60.06a.55.55,0,0,0-.39.13.65.65,0,0,0-.18.43.63.63,0,0,0,.15.4.58.58,0,0,0,1-.4.64.64,0,0,0-.16-.4A.63.63,0,0,0,41.09,60.06Z"/><path d="M67.59,47.5a8.92,8.92,0,0,0-4.47,1.21l-.41.24-.41-.24a8.94,8.94,0,1,0,0,15.46l.41-.24.41.24A8.93,8.93,0,1,0,67.59,47.5Zm-7,16.19a7.79,7.79,0,1,1,0-14.5l1.1.43-.79.88a8.88,8.88,0,0,0,0,11.89l.79.88Zm2.09-1.14L62.14,62a7.76,7.76,0,0,1,0-11.1l.57-.56.57.56a7.76,7.76,0,0,1,0,11.1Zm4.88,1.68a7.72,7.72,0,0,1-2.79-.54l-1.1-.43.79-.88a8.88,8.88,0,0,0,0-11.89l-.79-.88,1.1-.43a7.72,7.72,0,0,1,2.79-.54,7.79,7.79,0,1,1,0,15.58Z"/><path d="M12.19,41.68H31a2.33,2.33,0,0,0,2.33-2.33V26.13A2.33,2.33,0,0,0,31,23.8H12.19a2.33,2.33,0,0,0-2.33,2.33V39.36A2.33,2.33,0,0,0,12.19,41.68Zm20-2.33A1.18,1.18,0,0,1,31,40.53H24.82l.12-1a1,1,0,0,0,0-.15V36.11h7.21Zm0-4.4H25V31.7a1.18,1.18,0,0,1,1.17-1.17H31l.15,0,1-.12ZM19.38,26.13A1.18,1.18,0,0,1,20.55,25H31a1.18,1.18,0,0,1,1.17,1.17v2.08A1.18,1.18,0,0,1,31,29.38H26.13A2.33,2.33,0,0,0,23.8,31.7v7.65a1.18,1.18,0,0,1-1.17,1.17H20.55a1.18,1.18,0,0,1-1.17-1.17Zm-8.36,0A1.18,1.18,0,0,1,12.19,25h6.18l-.12,1a1.08,1.08,0,0,0,0,.15v3.25H11Zm0,4.4h7.21V35H11Zm0,5.58h7.21v3.25a1.1,1.1,0,0,0,0,.15l.12,1H12.19A1.18,1.18,0,0,1,11,39.36Z"/></svg>