<svg id="Capa_1" data-name="Capa 1" xmlns="http://www.w3.org/2000/svg" viewBox="0 0 85 85"><defs><style>.cls-1{fill:#070707;}</style></defs><title>Objeto inteligente vectorial12</title><path class="cls-1" d="M36.9,36.14a85,85,0,0,0-8.72-2h-.11A.6.6,0,0,0,28,35.3a83.6,83.6,0,0,1,8.59,2l.17,0a.61.61,0,0,0,.58-.44.6.6,0,0,0-.41-.75Z"/><path class="cls-1" d="M23.66,23.08a88.89,88.89,0,0,1,12.9,2.68l.17,0a.6.6,0,0,0,.53-.9.6.6,0,0,0-.36-.29,90,90,0,0,0-13.07-2.72h-.08a.6.6,0,0,0-.48,1A.6.6,0,0,0,23.66,23.08Z"/><path class="cls-1" d="M13.62,22.18c1.44.07,2.89.16,4.32.28h0a.6.6,0,0,0,0-1.21c-1.45-.12-2.91-.21-4.37-.28a.61.61,0,0,0-.61.58.6.6,0,0,0,.58.63Z"/><path class="cls-1" d="M36.9,30.37C36,30.1,35,29.83,34,29.59l-.15,0a.6.6,0,0,0-.15,1.19c1,.24,1.93.5,2.86.77l.17,0a.6.6,0,0,0,.17-1.19Z"/><path class="cls-1" d="M13.62,51c2.92.13,5.82.37,8.61.71h.08a.6.6,0,0,0,.07-1.2c-2.82-.34-5.75-.59-8.72-.72a.6.6,0,0,0,0,1.21Z"/><path class="cls-1" d="M13.62,33.73c2.92.13,5.82.37,8.62.72h.07a.6.6,0,0,0,.07-1.2c-2.82-.34-5.75-.59-8.72-.72a.6.6,0,0,0,0,1.21Z"/><path class="cls-1" d="M13.62,28A109.52,109.52,0,0,1,28,29.53h.11a.6.6,0,0,0,.11-1.2,110.69,110.69,0,0,0-14.53-1.6.6.6,0,0,0-.45,1A.6.6,0,0,0,13.62,28Z"/><path class="cls-1" d="M36.9,59.23a91.61,91.61,0,0,0-14.52-2.9H22.3a.6.6,0,0,0-.07,1.2,90.28,90.28,0,0,1,14.33,2.86l.17,0a.61.61,0,0,0,.58-.44.6.6,0,0,0-.41-.75Z"/><path class="cls-1" d="M28,52.62a84,84,0,0,1,8.59,2l.17,0a.6.6,0,0,0,.17-1.18,85,85,0,0,0-8.72-2h-.11a.6.6,0,0,0-.11,1.2Z"/><path class="cls-1" d="M36.9,41.91A91.62,91.62,0,0,0,22.37,39H22.3a.6.6,0,0,0-.07,1.2,90.29,90.29,0,0,1,14.33,2.86l.17,0a.6.6,0,0,0,.17-1.18Z"/><path class="cls-1" d="M16.57,55.77c-1-.07-1.93-.12-2.92-.17a.6.6,0,0,0,0,1.21c1,0,1.92.1,2.89.17h0A.6.6,0,0,0,17,56,.6.6,0,0,0,16.57,55.77Z"/><path class="cls-1" d="M13.62,45.27A109.47,109.47,0,0,1,28,46.85h.11a.6.6,0,0,0,.49-.95.6.6,0,0,0-.39-.25,110.59,110.59,0,0,0-14.53-1.6.6.6,0,0,0,0,1.21Z"/><path class="cls-1" d="M33.7,48.07c1,.25,2,.51,2.86.77l.17,0a.6.6,0,0,0,.17-1.18C36,47.41,35,47.15,34,46.9l-.15,0a.6.6,0,0,0-.15,1.19Z"/><path class="cls-1" d="M16.49,39.66h0a.6.6,0,0,0,0-1.21q-1.43-.1-2.92-.17a.6.6,0,0,0,0,1.21C14.58,39.54,15.55,39.6,16.49,39.66Z"/><path class="cls-1" d="M67,22.46h.05c1.41-.12,2.86-.21,4.31-.28a.6.6,0,0,0,.58-.63.61.61,0,0,0-.63-.58h0c-1.46.07-2.92.16-4.35.28a.6.6,0,0,0-.55.65A.61.61,0,0,0,67,22.46Z"/><path class="cls-1" d="M47.69,54.21a.61.61,0,0,0,.58.43l.17,0a83.81,83.81,0,0,1,8.59-2,.6.6,0,0,0-.11-1.2h-.11a84.91,84.91,0,0,0-8.72,2A.61.61,0,0,0,47.69,54.21Z"/><path class="cls-1" d="M48.27,31.56l.17,0c.91-.27,1.87-.53,2.86-.77a.6.6,0,0,0-.15-1.19l-.15,0c-1,.25-2,.52-2.91.79a.6.6,0,0,0-.41.75A.61.61,0,0,0,48.27,31.56Z"/><path class="cls-1" d="M62.7,56.32h-.08a91.61,91.61,0,0,0-14.52,2.9.6.6,0,0,0,.17,1.18l.17,0a90.34,90.34,0,0,1,14.33-2.86.6.6,0,0,0-.07-1.2Z"/><path class="cls-1" d="M71.32,44.06h0a110.66,110.66,0,0,0-14.51,1.6.6.6,0,0,0-.49.7.6.6,0,0,0,.59.5H57a109.47,109.47,0,0,1,14.35-1.58.6.6,0,0,0-.05-1.21Z"/><path class="cls-1" d="M80,18.09h-2.3V12.92a.61.61,0,0,0-.6-.6C57,12.32,45,17,42.8,17.91l-.29.12-.29-.12C40,17,28,12.32,7.88,12.32a.61.61,0,0,0-.6.6v5.17H5A3.49,3.49,0,0,0,1.5,21.58V69.19A3.49,3.49,0,0,0,5,72.68H80a3.49,3.49,0,0,0,3.49-3.49V21.58A3.49,3.49,0,0,0,80,18.09ZM5,71.47a2.28,2.28,0,0,1-2.28-2.28V21.58A2.28,2.28,0,0,1,5,19.3H7.26l0,20.29c0,6.67,0,13.34,0,18.35,0,2.5,0,4.59,0,6.06,0,.73,0,1.31,0,1.71,0,.85,0,.87.19,1a.6.6,0,0,0,.43.18A106.74,106.74,0,0,1,34.26,70l5.84,1.47Zm36.91-.33-1-.38C37,69.3,26.08,65.88,9.21,65.71H8.47V65c0-5.44,0-27.41,0-46.15V13.53h.76c17.95.19,29.18,4.15,32.19,5.36l.47.19Zm1.21,0V19.1l.47-.19c3-1.21,14.22-5.18,32.17-5.37h.76v.76c0,19.69,0,44.78,0,50.68v.74h-.74c-16.87.17-27.76,3.6-31.65,5.06Zm39.19-2A2.28,2.28,0,0,1,80,71.47H45.36L50.76,70A106.44,106.44,0,0,1,77.1,66.91a.6.6,0,0,0,.43-.18c.16-.16.18-.18.19-1,0-.39,0-1,0-1.7,0-1.46,0-3.55,0-6.06,0-5,0-11.68,0-18.35,0-7.22,0-20.29,0-20.29H80a2.28,2.28,0,0,1,2.28,2.28Z"/><path class="cls-1" d="M71.33,38.29h0c-1,0-1.95.1-2.9.17a.6.6,0,0,0-.56.64.61.61,0,0,0,.6.56h0c.94-.07,1.91-.12,2.87-.17a.6.6,0,0,0-.05-1.21Z"/><path class="cls-1" d="M71.32,55.6h0c-1,0-1.94.1-2.9.17a.6.6,0,0,0-.56.64.61.61,0,0,0,.6.56h0c.95-.07,1.91-.12,2.87-.17a.6.6,0,0,0,.58-.63A.61.61,0,0,0,71.32,55.6Z"/><path class="cls-1" d="M51.15,46.88l-.15,0c-1,.25-2,.52-2.91.79a.6.6,0,0,0,.17,1.19l.17,0c.91-.27,1.87-.53,2.86-.77a.6.6,0,0,0-.15-1.19Z"/><path class="cls-1" d="M63.17,40a.6.6,0,0,0-.47-1h-.08a91.5,91.5,0,0,0-14.52,2.9.6.6,0,0,0,.17,1.18l.17,0a90.43,90.43,0,0,1,14.33-2.86A.6.6,0,0,0,63.17,40Z"/><path class="cls-1" d="M71.32,49.83h0c-3,.14-5.88.38-8.7.72a.6.6,0,0,0,.07,1.2h.07c2.79-.34,5.69-.58,8.61-.72a.6.6,0,0,0,.58-.63A.61.61,0,0,0,71.32,49.83Z"/><path class="cls-1" d="M48.27,25.79l.17,0a89.08,89.08,0,0,1,12.9-2.68.6.6,0,0,0,.4-.23.6.6,0,0,0-.48-1h-.08A90,90,0,0,0,48.1,24.6a.6.6,0,0,0-.41.75A.61.61,0,0,0,48.27,25.79Z"/><path class="cls-1" d="M48.27,37.33l.17,0a83.77,83.77,0,0,1,8.59-2,.6.6,0,0,0-.11-1.2h-.11a84.93,84.93,0,0,0-8.72,2,.6.6,0,0,0,.17,1.18Z"/><path class="cls-1" d="M71.8,33.53A.6.6,0,0,0,72,33.1a.61.61,0,0,0-.63-.58h0c-3,.14-5.88.38-8.7.72a.6.6,0,0,0,.07,1.2h.07c2.79-.34,5.68-.58,8.61-.72A.6.6,0,0,0,71.8,33.53Z"/><path class="cls-1" d="M71.33,26.75h0a110.67,110.67,0,0,0-14.51,1.6.6.6,0,0,0-.49.7.6.6,0,0,0,.59.5H57A109.47,109.47,0,0,1,71.38,28a.6.6,0,0,0-.05-1.21Z"/></svg>