<svg id="Capa_1" data-name="Capa 1" xmlns="http://www.w3.org/2000/svg" viewBox="0 0 85 85"><defs><style>.cls-1{fill:#070707;}</style></defs><title>Objeto inteligente vectorial12</title><path class="cls-1" d="M60.22,64.51H48.16a.71.71,0,1,0,0,1.43H60.22a.71.71,0,1,0,0-1.43Z"/><path class="cls-1" d="M42,56.94H39.21a.71.71,0,1,0,0,1.43H42a.71.71,0,0,0,0-1.43Z"/><path class="cls-1" d="M42,64.53H39.21a.71.71,0,1,0,0,1.43H42a.71.71,0,0,0,0-1.43Z"/><path class="cls-1" d="M60.24,42.14a.71.71,0,1,0,0-1.43h-21a.72.72,0,0,0-.71.71.71.71,0,0,0,.71.71Z"/><path class="cls-1" d="M68.17,32.45h-29a.71.71,0,1,0,0,1.43h29a.71.71,0,0,0,0-1.43Z"/><path class="cls-1" d="M70.31,20.5H57.57V2.21a.72.72,0,0,0-.71-.71H9.18a.72.72,0,0,0-.71.71V55.07A6.25,6.25,0,0,0,20,58.26c.08-.13.16-.26.23-.4l.1-.21a6.12,6.12,0,0,0,.58-2.6V26.73a4.81,4.81,0,0,1,9.63,0V79.58a.73.73,0,0,0,0,.17l0,.11.07.09,0,.09,3.22,3.22a.72.72,0,0,0,1,0l5.87-5.87,5.87,5.87a.72.72,0,0,0,1,0l5.87-5.87,5.85,5.89a.72.72,0,0,0,1,0l5.87-5.87,5.87,5.87a.69.69,0,0,0,1,0l3.18-3.18a.72.72,0,0,0,.21-.5V26.73A6.23,6.23,0,0,0,70.31,20.5Zm-44.56,0a6.23,6.23,0,0,0-6.23,6.23V55.07a4.81,4.81,0,0,1-9.63,0V2.91H56.16V20.5ZM75.07,79.3,72.6,81.77,66.73,75.9a.72.72,0,0,0-1,0l-5.87,5.87L54,75.92a.72.72,0,0,0-1,0l-5.87,5.85L41.31,75.9a.69.69,0,0,0-1,0l-5.87,5.87L32,79.3V26.73c0-.2,0-.4,0-.62,0-.05,0-.1,0-.16a3.13,3.13,0,0,0,0-.32c0-.06,0-.12,0-.24s0-.2-.07-.3h0l-.06-.19a5.52,5.52,0,0,0-.21-.55l-.07-.16,0-.09a1.73,1.73,0,0,0-.08-.16,1.35,1.35,0,0,1-.12-.23L31,23.33l0,0v0l-.15-.16V21.89H70.26a4.82,4.82,0,0,1,4.81,4.81Z"/><path class="cls-1" d="M68.17,56.94h-20a.71.71,0,1,0,0,1.43h20a.71.71,0,0,0,0-1.43Z"/><path class="cls-1" d="M68.17,48.3h-29a.72.72,0,0,0-.71.71.71.71,0,0,0,.71.71h29a.71.71,0,0,0,0-1.43Z"/></svg>