<svg id="Capa_1" data-name="Capa 1" xmlns="http://www.w3.org/2000/svg" viewBox="0 0 85 85"><title>Objeto inteligente vectorial12</title><path d="M83.18,57.51,72.72,47.06l.41-.51a17.45,17.45,0,0,0,3.81-10.93A17.68,17.68,0,0,0,59.28,18a17.45,17.45,0,0,0-7.65,1.75l-.15.07H50l.06-.94a1.77,1.77,0,0,0,0-.19v-.78A5.14,5.14,0,0,0,45,12.73H28.53a5.14,5.14,0,0,0-5.13,5.13v.78a1.77,1.77,0,0,0,0,.19l.06.94H8.59A7.09,7.09,0,0,0,1.5,26.86v9.39A7,7,0,0,0,3.74,41.4l.29.27L4,42.06a7,7,0,0,0-.12,1.22v21.9a7.09,7.09,0,0,0,7.09,7.09H62.55a7.09,7.09,0,0,0,7.08-7.09V49.91l.29-.22q.38-.29.75-.6l.52-.44L81.62,59.08a1.1,1.1,0,1,0,1.56-1.56ZM25.06,17.86a3.48,3.48,0,0,1,3.47-3.47H45a3.48,3.48,0,0,1,3.47,3.47v.78a3.56,3.56,0,0,1,0,.49l-.09.63H25.18l-.09-.63a3.56,3.56,0,0,1,0-.49ZM3.16,36.24V26.86a5.43,5.43,0,0,1,5.43-5.43h40L47.25,22.7a17.62,17.62,0,0,0-4.87,18l.29.95H24.27v-2.3A3.18,3.18,0,0,0,21.1,36.2H19.54a3.18,3.18,0,0,0-3.17,3.17v2.3H8.59A5.43,5.43,0,0,1,3.16,36.24Zm19.46,3.13v6.26a1.52,1.52,0,0,1-1.52,1.52H19.54A1.52,1.52,0,0,1,18,45.63V39.37a1.52,1.52,0,0,1,1.52-1.52H21.1A1.52,1.52,0,0,1,22.62,39.37ZM68,65.18a5.43,5.43,0,0,1-5.43,5.43H10.93A5.43,5.43,0,0,1,5.5,65.18V42.7l1,.3a7.06,7.06,0,0,0,2.12.33h7.78v2.3a3.18,3.18,0,0,0,3.17,3.18H21.1a3.18,3.18,0,0,0,3.18-3.18v-2.3H43.4l.21.4a17.65,17.65,0,0,0,23.32,7.8L68,51Zm-8.7-13.66A15.91,15.91,0,1,1,75.19,35.61,15.93,15.93,0,0,1,59.28,51.52Z"/></svg>