<svg id="Capa_1" data-name="Capa 1" xmlns="http://www.w3.org/2000/svg" viewBox="0 0 85 85"><title>Objeto inteligente vectorial12</title><path d="M35.57,19.35a13.23,13.23,0,1,0,8.07,16.91h0a13.23,13.23,0,0,0-8.07-16.9ZM27.19,43A11.82,11.82,0,1,1,42.3,35.78,11.83,11.83,0,0,1,27.19,43Z"/><path d="M48.15,55.66l-1.09-4.09a1.62,1.62,0,0,1,.5-1.64,23.45,23.45,0,0,0,2.66-2.84,1.64,1.64,0,0,1,1.6-.61l4.26.81a2.94,2.94,0,0,0,3.26-1.84l2-5.34A2.86,2.86,0,0,0,60,36.6l-3.66-2.12a1.64,1.64,0,0,1-.8-1.51,25.6,25.6,0,0,0-.11-3.91,1.58,1.58,0,0,1,.7-1.53l3.6-2.44a2.9,2.9,0,0,0,1-3.58L58.42,16.4A2.91,2.91,0,0,0,55,14.8L51,15.93a1.66,1.66,0,0,1-1.66-.5,24.79,24.79,0,0,0-2.82-2.66,1.64,1.64,0,0,1-.61-1.6l.81-4.26a2.94,2.94,0,0,0-1.84-3.26l-5.34-2A2.86,2.86,0,0,0,36,3L33.91,6.59a1.64,1.64,0,0,1-1.52.8,20.56,20.56,0,0,0-4,.13,1.66,1.66,0,0,1-1.57-.7l-2.4-3.55a2.86,2.86,0,0,0-3.58-1L15.67,4.64A2.91,2.91,0,0,0,14.07,8l1.11,4.15a1.57,1.57,0,0,1-.5,1.62A23.37,23.37,0,0,0,12,16.65a1.63,1.63,0,0,1-1.59.6l-4.2-.81A3,3,0,0,0,3,18.21L1,23.55a2.86,2.86,0,0,0,1.27,3.52L6,29.21a1.6,1.6,0,0,1,.8,1.49,23.14,23.14,0,0,0,.13,3.93,1.62,1.62,0,0,1-.7,1.55L2.66,38.6a2.86,2.86,0,0,0-1,3.58L4,47.3a2.91,2.91,0,0,0,3.38,1.6l4.15-1.11a1.57,1.57,0,0,1,1.62.5A23.33,23.33,0,0,0,16,50.95a1.63,1.63,0,0,1,.6,1.59l-.81,4.2A2.94,2.94,0,0,0,17.66,60L23,62a2.85,2.85,0,0,0,3.52-1.27L28.65,57a1.73,1.73,0,0,1,1.52-.82A25.94,25.94,0,0,0,33.9,56a1.63,1.63,0,0,1,1.55.7l2.44,3.59a2.86,2.86,0,0,0,3.58,1L46.58,59A2.8,2.8,0,0,0,48.15,55.66Zm-2.14,2L40.87,60a1.44,1.44,0,0,1-1.81-.5l-2.44-3.59a3,3,0,0,0-2.89-1.31,24.06,24.06,0,0,1-3.52.12,3.12,3.12,0,0,0-2.79,1.53L25.28,60a1.45,1.45,0,0,1-1.79.65l-5.35-2A1.5,1.5,0,0,1,17.21,57L18,52.82a3.06,3.06,0,0,0-1.11-3,21.89,21.89,0,0,1-2.68-2.5,3,3,0,0,0-2.25-1,3,3,0,0,0-.8.11L7,47.52a1.48,1.48,0,0,1-1.73-.8L3,41.58a1.44,1.44,0,0,1,.5-1.81L7,37.35a3,3,0,0,0,1.31-2.9,21.71,21.71,0,0,1-.12-3.69A3,3,0,0,0,6.69,28L3,25.84a1.45,1.45,0,0,1-.65-1.79l2-5.31A1.54,1.54,0,0,1,6,17.83l4.19.81a3.06,3.06,0,0,0,3-1.11,22,22,0,0,1,2.5-2.68,3,3,0,0,0,.93-3.05L15.45,7.66a1.48,1.48,0,0,1,.8-1.73l5.14-2.35a1.44,1.44,0,0,1,1.8.5l2.4,3.55a3.1,3.1,0,0,0,2.93,1.31,19.34,19.34,0,0,1,3.77-.12,3.06,3.06,0,0,0,2.85-1.51l2.1-3.64A1.45,1.45,0,0,1,39,3l5.35,2a1.5,1.5,0,0,1,.94,1.66l-.81,4.25a3,3,0,0,0,1.11,3,23.36,23.36,0,0,1,2.66,2.51,3.05,3.05,0,0,0,3.09.91l4-1.13a1.48,1.48,0,0,1,1.73.8l2.35,5.13A1.48,1.48,0,0,1,59,23.92l-3.59,2.44A3,3,0,0,0,54,29.23a24.12,24.12,0,0,1,.1,3.68,3.06,3.06,0,0,0,1.51,2.81l3.66,2.12A1.45,1.45,0,0,1,60,39.62L58,45a1.5,1.5,0,0,1-1.66.94l-4.25-.81a3.09,3.09,0,0,0-3,1.11,22,22,0,0,1-2.51,2.67,3,3,0,0,0-.92,3.06L46.77,56h0A1.39,1.39,0,0,1,46,57.68Z"/><path d="M84.18,63.09a2.11,2.11,0,0,0-1.7-1.93h0L80,60.72a.68.68,0,0,1-.53-.49A14.08,14.08,0,0,0,78.59,58a.71.71,0,0,1,0-.72l1.52-2.1A2,2,0,0,0,80,52.62l-2.4-2.4A2,2,0,0,0,75,50l-2,1.45a.67.67,0,0,1-.71,0A15.7,15.7,0,0,0,70,50.55a.69.69,0,0,1-.47-.53l-.41-2.55a2,2,0,0,0-2-1.68H63.82a2,2,0,0,0-2,1.67l-.41,2.48a.69.69,0,0,1-.49.54,13,13,0,0,0-2.19.88.71.71,0,0,1-.72,0l-2.1-1.52a2,2,0,0,0-2.58.21L51,52.39A2,2,0,0,0,50.73,55L52.16,57a.75.75,0,0,1,0,.74,14.82,14.82,0,0,0-1,2.23.71.71,0,0,1-.55.49l-2.53.41a2,2,0,0,0-1.68,2v3.38a2,2,0,0,0,1.66,2l2.53.45a.69.69,0,0,1,.53.48,15.55,15.55,0,0,0,.9,2.19.71.71,0,0,1,0,.72l-1.5,2.08a2.08,2.08,0,0,0,.18,2.58l2.4,2.4a2,2,0,0,0,2.58.23l2.07-1.47a.67.67,0,0,1,.73,0,15.53,15.53,0,0,0,2.18.91.72.72,0,0,1,.49.53l.41,2.53a2,2,0,0,0,2,1.68h3.38a2,2,0,0,0,2-1.66l.45-2.53a.69.69,0,0,1,.48-.53,15.59,15.59,0,0,0,2.2-.9.71.71,0,0,1,.72,0l2.08,1.5a2,2,0,0,0,2.58-.21l2.4-2.39A2,2,0,0,0,80,74.25l-1.47-2.07a.71.71,0,0,1,0-.73,13.8,13.8,0,0,0,.87-2.07.72.72,0,0,1,.55-.49l2.55-.41a2,2,0,0,0,1.68-2Zm-1.42,3.43a.59.59,0,0,1-.49.56l-2.55.41A2.15,2.15,0,0,0,78,68.93a12.57,12.57,0,0,1-.79,1.88A2.14,2.14,0,0,0,77.4,73l1.48,2.07a.59.59,0,0,1-.07.75l-2.4,2.4a.61.61,0,0,1-.75.05l-2.08-1.5a2.13,2.13,0,0,0-2.18-.16,14.09,14.09,0,0,1-2,.81A2.1,2.1,0,0,0,68,79.07L67.5,81.6a.59.59,0,0,1-.58.48H63.54a.59.59,0,0,1-.56-.49l-.41-2.53a2.15,2.15,0,0,0-1.45-1.65,14,14,0,0,1-2-.82,2.08,2.08,0,0,0-1-.26,2.11,2.11,0,0,0-1.21.39l-2.07,1.48a.59.59,0,0,1-.75-.07l-2.36-2.36a.64.64,0,0,1-.07-.79l1.5-2.08a2.13,2.13,0,0,0,.16-2.18,14.14,14.14,0,0,1-.81-2,2.1,2.1,0,0,0-1.65-1.46l-2.53-.45a.6.6,0,0,1-.48-.58V62.86a.59.59,0,0,1,.49-.56l2.52-.41a2.15,2.15,0,0,0,1.68-1.45,13.51,13.51,0,0,1,.88-2,2.18,2.18,0,0,0-.14-2.2l-1.44-2.06a.59.59,0,0,1,.07-.75l2.4-2.4a.61.61,0,0,1,.75-.06l2.11,1.52a2.14,2.14,0,0,0,2.19.16,11.67,11.67,0,0,1,2-.79,2.13,2.13,0,0,0,1.46-1.67l.41-2.47a.6.6,0,0,1,.58-.48H67.2a.59.59,0,0,1,.56.49l.41,2.55a2.12,2.12,0,0,0,1.4,1.64,14.19,14.19,0,0,1,2,.85,2.08,2.08,0,0,0,2.22-.12l2.05-1.45a.59.59,0,0,1,.75.07l2.4,2.4a.61.61,0,0,1,.06.75l-1.53,2.11a2.13,2.13,0,0,0-.16,2.18,12.64,12.64,0,0,1,.79,2,2.1,2.1,0,0,0,1.65,1.49l2.48.43a.67.67,0,0,1,.52.58Z"/><path d="M59.44,58.92A8.18,8.18,0,1,0,71,58.8,8.19,8.19,0,0,0,59.44,58.92ZM70.11,69.37a6.76,6.76,0,1,1-.1-9.56,6.76,6.76,0,0,1,.1,9.56Z"/></svg>